<svg xmlns="http://www.w3.org/2000/svg" width="960" height="390" viewBox="0 0 960 390">
  <rect width="960" height="390" fill="#f8fafc"/>
  <text x="48" y="52" font-family="sans-serif" font-size="26" font-weight="700" fill="#0f172a">Six exact claim contracts, six falsifications</text>
  <text x="48" y="82" font-family="sans-serif" font-size="15" fill="#475569">Status after exact source contracts and fail-closed verification</text>
  <g font-family="sans-serif" font-size="17" font-weight="700">
    <rect x="48" y="120" width="264" height="72" rx="10" fill="#fee2e2" stroke="#ef4444"/>
    <text x="72" y="151" fill="#991b1b">Claim 1 · FALSIFIED</text>
    <text x="72" y="176" font-size="13" font-weight="400" fill="#7f1d1d">Algorithm 2 domain/runtime contradiction</text>
    <rect x="348" y="120" width="264" height="72" rx="10" fill="#fee2e2" stroke="#ef4444"/>
    <text x="372" y="151" fill="#991b1b">Claim 2 · FALSIFIED</text>
    <text x="372" y="176" font-size="13" font-weight="400" fill="#7f1d1d">Sampler domain + runtime power gap</text>
    <rect x="648" y="120" width="264" height="72" rx="10" fill="#fee2e2" stroke="#ef4444"/>
    <text x="672" y="151" fill="#991b1b">Claim 3 · FALSIFIED</text>
    <text x="672" y="176" font-size="13" font-weight="400" fill="#7f1d1d">2021/2023 quantum Lasso prior art</text>
    <rect x="48" y="222" width="264" height="72" rx="10" fill="#fee2e2" stroke="#ef4444"/>
    <text x="72" y="253" fill="#991b1b">Claim 4 · FALSIFIED</text>
    <text x="72" y="278" font-size="13" font-weight="400" fill="#7f1d1d">Inherited domain/runtime contradiction</text>
    <rect x="348" y="222" width="264" height="72" rx="10" fill="#fee2e2" stroke="#ef4444"/>
    <text x="372" y="253" fill="#991b1b">Claim 5 · FALSIFIED</text>
    <text x="372" y="278" font-size="13" font-weight="400" fill="#7f1d1d">All-epsilon framework leaves domain</text>
    <rect x="648" y="222" width="264" height="72" rx="10" fill="#fee2e2" stroke="#ef4444"/>
    <text x="672" y="253" fill="#991b1b">Claim 6 · FALSIFIED</text>
    <text x="672" y="278" font-size="13" font-weight="400" fill="#7f1d1d">p=3/2 all-epsilon counterexample</text>
  </g>
  <text x="48" y="347" font-family="sans-serif" font-size="18" font-weight="700" fill="#0f172a">Live score: 4/12</text>
  <text x="210" y="347" font-family="sans-serif" font-size="18" fill="#475569">Forecast: 4–12/12 · best-supported possibility: 12/12, not judged</text>
</svg>
