<svg xmlns="http://www.w3.org/2000/svg" width="960" height="440" viewBox="0 0 960 440">
  <rect width="960" height="440" fill="#fff"/>
  <text x="50" y="44" font-family="sans-serif" font-size="24" font-weight="700" fill="#0f172a">Formula-independent first-hit calibration</text>
  <text x="50" y="72" font-family="sans-serif" font-size="14" fill="#475569">Smallest k reaching 80% success; 20 seeds. “&gt;512” means no hit.</text>
  <line x1="90" y1="365" x2="915" y2="365" stroke="#94a3b8"/>
  <g font-family="sans-serif" font-size="13" fill="#334155" text-anchor="middle">
    <text x="190" y="395">C2 linear</text><text x="390" y="395">C4 ridge</text>
    <text x="590" y="395">C5 Huber</text><text x="790" y="395">C6 ℓ₀.₅</text>
  </g>
  <g>
    <rect x="135" y="237" width="45" height="128" fill="#2563eb"/><rect x="190" y="105" width="45" height="260" fill="#cbd5e1"/>
    <rect x="335" y="237" width="45" height="128" fill="#2563eb"/><rect x="390" y="105" width="45" height="260" fill="#cbd5e1"/>
    <rect x="535" y="357" width="45" height="8" fill="#2563eb"/><rect x="590" y="237" width="45" height="128" fill="#cbd5e1"/>
    <rect x="735" y="361" width="45" height="4" fill="#2563eb"/><rect x="790" y="105" width="45" height="260" fill="#cbd5e1"/>
  </g>
  <g font-family="sans-serif" font-size="13" text-anchor="middle">
    <text x="157" y="226" fill="#1d4ed8">256</text><text x="212" y="94" fill="#64748b">&gt;512</text>
    <text x="357" y="226" fill="#1d4ed8">256</text><text x="412" y="94" fill="#64748b">&gt;512</text>
    <text x="557" y="346" fill="#1d4ed8">16</text><text x="612" y="226" fill="#64748b">256</text>
    <text x="757" y="350" fill="#1d4ed8">8</text><text x="812" y="94" fill="#64748b">&gt;512</text>
  </g>
  <rect x="660" y="35" width="15" height="15" fill="#2563eb"/><text x="683" y="48" font-family="sans-serif" font-size="13" fill="#334155">informed</text>
  <rect x="770" y="35" width="15" height="15" fill="#cbd5e1"/><text x="793" y="48" font-family="sans-serif" font-size="13" fill="#334155">control</text>
  <text x="50" y="425" font-family="sans-serif" font-size="13" fill="#475569">Representative m=512 cell. C6 control intentionally has single-row support; the rejected uniform control passed.</text>
</svg>
